<svg width="33" height="32" viewBox="0 0 33 32" fill="none" xmlns="http://www.w3.org/2000/svg">
<path d="M32.0994 20.7689L26.7476 12.3796C26.563 12.091 26.2714 11.8873 25.9369 11.8133C25.6023 11.7394 25.252 11.8011 24.9629 11.9851L24.5392 12.2555V6.84971C24.5391 6.73565 24.4965 6.6257 24.4197 6.54141L18.5948 0.149477C18.5519 0.102403 18.4997 0.0647953 18.4415 0.0390569C18.3832 0.0133185 18.3202 1.60674e-05 18.2566 0H9.07185C8.16792 0 7.4325 0.787009 7.4325 1.75436V11.8158L7.33841 11.7558C7.04926 11.572 6.69907 11.5104 6.36455 11.5843C6.03003 11.6583 5.73846 11.8618 5.55371 12.1503L0.201973 20.5396C0.0182251 20.8287 -0.0434252 21.1789 0.0305283 21.5135C0.104482 21.848 0.308009 22.1395 0.596524 22.3243L3.22381 24.0004C3.43004 24.1327 3.66989 24.203 3.9149 24.2031C4.01001 24.203 4.10484 24.1926 4.1977 24.172C4.36355 24.136 4.5206 24.0674 4.65978 23.9703C4.79895 23.8732 4.91748 23.7494 5.00851 23.6062L5.35454 23.0634C5.38222 23.0909 5.40982 23.1171 5.43732 23.1419C4.8848 23.7576 4.37974 24.4642 4.45958 25.3919C4.5164 26.0518 4.75487 26.5402 5.16845 26.8435C5.54005 27.1161 6.03811 27.222 6.65334 27.1608C6.73658 27.6992 6.94661 28.1296 7.28067 28.4446C7.66699 28.8088 8.20768 29.0058 8.89164 29.032C9.02058 29.5018 9.26186 29.8611 9.61182 30.1031C10.0719 30.4215 10.6795 30.5177 11.4611 30.3945C11.7989 31.224 12.4707 31.6572 13.4282 31.6572C13.4621 31.6572 13.4966 31.6566 13.5312 31.6555C14.0466 31.6393 14.5593 31.2561 14.9403 30.8811C16.0199 31.6253 16.9569 32 17.738 31.9999C17.9721 32.0017 18.2049 31.9644 18.4267 31.8893C19.0058 31.6897 19.444 31.2393 19.7334 30.5479C20.3947 30.7593 20.9717 30.7457 21.4534 30.5063C21.9752 30.247 22.3615 29.733 22.6049 28.9754C23.2403 29.0417 23.7605 28.9244 24.1551 28.6253C24.5294 28.3417 24.7753 27.9066 24.8893 27.3281C25.7866 27.4258 26.5422 27.2019 27.1404 26.6584C27.1678 26.6334 27.1922 26.6052 27.2128 26.5744C27.6509 25.9205 27.8087 25.2828 27.6814 24.6795C27.6204 24.4022 27.5052 24.1397 27.3423 23.9072C27.5369 24.1708 27.8244 24.3507 28.1465 24.4105C28.4687 24.4704 28.8015 24.4058 29.0779 24.2297L31.7052 22.5536C31.9937 22.3689 32.1972 22.0773 32.2712 21.7428C32.3451 21.4082 32.2835 21.0581 32.0997 20.7689H32.0994ZM23.045 6.392H18.7327L18.7179 1.64353L23.045 6.392ZM8.34794 1.75436C8.34794 1.2918 8.67272 0.915431 9.07185 0.915431H17.8002L17.8187 6.85115C17.819 6.9723 17.8674 7.08835 17.9532 7.17388C18.039 7.2594 18.1552 7.30743 18.2764 7.30743H23.6237V12.8392L22.3356 13.661C22.0923 13.8169 21.9081 14.0497 21.8126 14.3224C21.717 14.5951 21.7154 14.8919 21.8082 15.1656C21.6888 15.1674 21.565 15.1648 21.4367 15.158C20.8548 15.1261 20.4926 14.9487 20.1093 14.7611C19.138 14.2854 18.3242 14.0558 16.2531 15.1768C15.4858 14.1767 14.214 14.4917 13.0779 14.7739C12.2007 14.9917 11.2983 15.2158 10.4681 15.0064C10.5811 14.7265 10.5927 14.416 10.5009 14.1285C10.4092 13.841 10.2199 13.5946 9.96583 13.4318L8.34794 12.4V1.75436ZM26.3526 22.971C26.3124 22.944 26.2719 22.917 26.23 22.8905C25.8618 22.6616 25.308 22.2669 24.6672 21.8101C21.3035 19.4137 18.8411 17.7863 17.7868 18.6754C15.246 20.8189 13.697 21.3292 13.1422 21.115C13.0521 21.0802 12.9562 21.0155 12.9275 20.8002C12.8211 20.0025 13.8112 18.0424 16.3438 16.1744C18.4434 14.9647 18.9736 15.2242 19.7067 15.5833C20.1131 15.7823 20.6189 16.03 21.3867 16.072C21.6999 16.0907 22.0141 16.083 22.3259 16.0489L26.6094 22.7636C26.542 22.8526 26.4538 22.9239 26.3526 22.971ZM4.237 23.1137C4.18282 23.1975 4.09777 23.2566 4.0003 23.2782C3.90282 23.2997 3.80078 23.2819 3.71631 23.2287L1.08903 21.5526C1.00519 21.4985 0.946098 21.4134 0.924554 21.316C0.90301 21.2185 0.920756 21.1165 0.973943 21.032L6.32562 12.6428C6.35225 12.6011 6.38688 12.5651 6.42751 12.5369C6.46814 12.5086 6.51396 12.4888 6.56232 12.4784C6.58974 12.4723 6.61774 12.4692 6.64582 12.4692C6.71686 12.4691 6.78644 12.4894 6.8463 12.5277L9.47365 14.2038C9.55749 14.2579 9.61658 14.343 9.63813 14.4404C9.65967 14.5379 9.64192 14.6399 9.58874 14.7244L4.237 23.1137ZM5.71019 26.1054C5.51886 25.9651 5.40502 25.6985 5.37187 25.3132C5.31099 24.6061 5.8594 24.0233 6.44011 23.4063C6.555 23.2842 6.67374 23.1578 6.78536 23.0324C6.89529 22.9056 7.03817 22.8116 7.19818 22.7609C7.3582 22.7103 7.52912 22.7048 7.69203 22.7453C7.87941 22.7915 8.05222 22.8839 8.19466 23.0141C8.3371 23.1443 8.44463 23.3082 8.50742 23.4907C8.34964 23.977 7.93083 24.8919 6.82381 26.2121C6.31699 26.3058 5.93355 26.2694 5.70999 26.1054H5.71019ZM7.53431 26.7896C8.77956 25.3015 9.23577 24.2419 9.4016 23.6984C9.84963 23.231 10.6238 23.0273 11.1767 23.2453C11.5676 23.3994 11.7658 23.739 11.7679 24.2548L9.02568 28.12C8.52102 28.1169 8.14563 28.0023 7.90873 27.7788C7.6868 27.5693 7.56165 27.2365 7.53431 26.7896ZM10.1326 29.3506C9.94072 29.2178 9.81478 28.9975 9.749 28.6824L12.489 24.8206C13.1209 24.7146 13.5988 24.8108 13.8443 25.0982C14.1027 25.4005 14.1124 25.944 13.8745 26.5956C13.1939 27.4213 12.6554 28.0752 12.2589 28.5572C11.9123 28.9786 11.6507 29.2956 11.5211 29.453C10.8941 29.581 10.4162 29.5463 10.1326 29.3503V29.3506ZM13.5025 30.7406C12.8522 30.7612 12.4763 30.5281 12.2797 29.9715C12.4014 29.8241 12.6093 29.5716 12.9652 29.1393C13.335 28.69 13.8279 28.0914 14.4439 27.3435C15.0204 27.5154 15.3537 27.7611 15.4355 28.0755C15.5029 28.3348 15.2887 28.9925 14.7588 29.7006C14.261 30.3664 13.7399 30.7331 13.5025 30.7406ZM26.4839 26.0171C26.0273 26.4078 25.4348 26.5225 24.6773 26.3682L19.6289 22.9563C19.5791 22.9227 19.5231 22.8992 19.4642 22.8871C19.4053 22.8751 19.3446 22.8748 19.2856 22.8862C19.2266 22.8976 19.1704 22.9205 19.1203 22.9537C19.0701 22.9868 19.027 23.0295 18.9933 23.0793C18.9253 23.1799 18.9001 23.3033 18.9232 23.4225C18.9462 23.5417 19.0157 23.6469 19.1163 23.7148L24.0129 27.024C23.9527 27.4415 23.8153 27.7344 23.6024 27.8958C23.3563 28.0823 22.9663 28.1247 22.4456 28.0258L18.5529 25.4859L18.0527 26.2525L21.7442 28.6612C21.5808 29.1924 21.3467 29.5374 21.0463 29.6864C20.7193 29.849 20.2606 29.8026 19.683 29.5502L17.3857 27.9172C17.2867 27.8477 17.1643 27.8203 17.0451 27.8408C16.9259 27.8613 16.8197 27.9281 16.7497 28.0266C16.6796 28.1252 16.6514 28.2474 16.6712 28.3667C16.691 28.486 16.7571 28.5926 16.8552 28.6633L18.9154 30.1279C18.7285 30.6068 18.4648 30.9082 18.1285 31.0242C17.5425 31.2261 16.6519 30.9345 15.5409 30.1827C15.8347 29.7767 16.5403 28.686 16.3216 27.8454C16.164 27.2392 15.6724 26.7933 14.858 26.5157C15.0683 25.6984 14.9602 24.9954 14.5401 24.5037C14.1296 24.0233 13.4715 23.8075 12.6552 23.8774C12.5494 23.1722 12.1497 22.6448 11.5125 22.3936C10.7633 22.0981 9.83558 22.2465 9.13802 22.7265C8.85134 22.2867 8.40651 21.974 7.89565 21.8532C7.57285 21.7762 7.23519 21.7887 6.91898 21.8894C6.60277 21.99 6.31997 22.1749 6.10101 22.4243C6.08761 22.4394 6.07322 22.4546 6.05962 22.4697C5.98896 22.4067 5.92369 22.3379 5.8645 22.2641L9.97806 15.8158C11.1106 16.2058 12.2666 15.9188 13.2984 15.6626C14.507 15.3624 15.1074 15.2682 15.4811 15.6808C13.2456 17.4235 11.8357 19.5401 12.0199 20.9215C12.0871 21.4257 12.3684 21.7977 12.8121 21.9691C13.0017 22.0393 13.2027 22.0737 13.4048 22.0706C14.5574 22.0706 16.2869 21.1385 18.3769 19.3754C18.3802 19.3725 18.7206 19.115 20.5116 20.1392C21.6881 20.8121 23.0452 21.779 24.1358 22.556C24.7897 23.0216 25.3538 23.4237 25.743 23.666C26.3472 24.0487 26.6977 24.4533 26.7856 24.8685C26.8585 25.2133 26.7598 25.5894 26.4839 26.0171ZM27.0823 23.5829C27.0933 23.574 27.104 23.5649 27.115 23.5557L27.2932 23.8351C27.2985 23.8435 27.3044 23.8513 27.3098 23.8595C27.2398 23.7627 27.1637 23.6703 27.0822 23.5829H27.0823ZM31.377 21.5451C31.3666 21.5935 31.3467 21.6393 31.3185 21.68C31.2903 21.7206 31.2543 21.7552 31.2126 21.7818L28.5853 23.4579C28.501 23.5116 28.3988 23.5296 28.3012 23.508C28.2036 23.4865 28.1185 23.4271 28.0646 23.3428L22.7129 14.9536C22.6592 14.8692 22.6412 14.767 22.6628 14.6694C22.6844 14.5718 22.7438 14.4868 22.828 14.4329L25.4554 12.7569C25.5397 12.7032 25.6419 12.6852 25.7395 12.7068C25.8371 12.7283 25.9222 12.7878 25.9761 12.872L31.3277 21.2613C31.3543 21.303 31.3723 21.3496 31.3808 21.3983C31.3892 21.447 31.3879 21.4969 31.3769 21.5451H31.377ZM10.0631 5.11844C10.0631 4.99704 10.1113 4.88062 10.1971 4.79478C10.283 4.70894 10.3994 4.66072 10.5208 4.66072H15.9178C16.0392 4.66072 16.1556 4.70894 16.2414 4.79478C16.3273 4.88062 16.3755 4.99704 16.3755 5.11844C16.3755 5.23983 16.3273 5.35625 16.2414 5.44209C16.1556 5.52793 16.0392 5.57615 15.9178 5.57615H10.5208C10.3994 5.57615 10.283 5.52793 10.1971 5.44209C10.1113 5.35625 10.0631 5.23983 10.0631 5.11844ZM12.2683 8.63977H21.0716C21.193 8.63977 21.3094 8.688 21.3952 8.77383C21.4811 8.85967 21.5293 8.97609 21.5293 9.09749C21.5293 9.21888 21.4811 9.3353 21.3952 9.42114C21.3094 9.50698 21.193 9.5552 21.0716 9.5552H12.2683C12.1469 9.5552 12.0305 9.50698 11.9447 9.42114C11.8588 9.3353 11.8106 9.21888 11.8106 9.09749C11.8106 8.97609 11.8588 8.85967 11.9447 8.77383C12.0305 8.688 12.1469 8.63977 12.2683 8.63977H12.2683ZM21.5293 12.0172C21.5293 12.1386 21.4811 12.255 21.3952 12.3408C21.3094 12.4267 21.193 12.4749 21.0716 12.4749H12.2683C12.1469 12.4749 12.0305 12.4267 11.9447 12.3408C11.8588 12.255 11.8106 12.1386 11.8106 12.0172C11.8106 11.8958 11.8588 11.7794 11.9447 11.6935C12.0305 11.6077 12.1469 11.5595 12.2683 11.5595H21.0716C21.193 11.5595 21.3094 11.6077 21.3952 11.6935C21.4811 11.7794 21.5293 11.8958 21.5293 12.0172Z" fill="#3B3B3B"/>
</svg>
