<svg width="104" height="133" viewBox="0 0 104 133" fill="none" xmlns="http://www.w3.org/2000/svg">
<path d="M19.6868 20.6072L11.9373 16.8086C10.6026 16.1543 8.99595 16.8156 8.50895 18.2201L6.69629 23.4451C6.20929 24.8497 7.06083 26.3638 8.51436 26.6765L16.9517 28.4928C18.1745 28.756 19.4014 28.0659 19.8113 26.8841L20.9361 23.6413C21.3461 22.4595 20.8098 21.1576 19.6868 20.6072Z" stroke="#83B645" stroke-width="4" stroke-miterlimit="10" stroke-linecap="round" stroke-linejoin="round"/>
<path d="M31.2329 10.2598L26.4209 3.09529C25.592 1.86116 23.8698 1.63093 22.7458 2.60365L18.5636 6.22252C17.4396 7.19524 17.4202 8.93236 18.5224 9.92982L24.9212 15.7213C25.8483 16.5607 27.2562 16.5764 28.2021 15.7579L30.7977 13.5121C31.7433 12.6935 31.9302 11.2983 31.2329 10.2598Z" stroke="#83B645" stroke-width="4" stroke-miterlimit="10" stroke-linecap="round" stroke-linejoin="round"/>
<path d="M18.0362 35.5705L9.42561 36.1555C7.94243 36.2563 6.8818 37.6325 7.1623 39.0922L8.20514 44.5237C8.48538 45.9834 9.98016 46.8687 11.3953 46.4132L19.6099 43.7673C20.8007 43.3839 21.5182 42.1725 21.2825 40.9443L20.6352 37.5737C20.3993 36.3452 19.2842 35.4857 18.0362 35.5705Z" stroke="#83B645" stroke-width="4" stroke-miterlimit="10" stroke-linecap="round" stroke-linejoin="round"/>
<path d="M87.0496 28.4924L95.4867 26.6762C96.9399 26.3632 97.7917 24.8491 97.3045 23.4445L95.4918 18.2195C95.0046 16.8152 93.3981 16.1537 92.0635 16.808L84.3142 20.6068C83.1907 21.1573 82.655 22.4592 83.0649 23.641L84.1897 26.8837C84.5996 28.0653 85.8268 28.7557 87.0496 28.4924Z" stroke="#83B645" stroke-width="4" stroke-miterlimit="10" stroke-linecap="round" stroke-linejoin="round"/>
<path d="M84.3907 43.7667L92.6058 46.4123C94.0209 46.8679 95.5154 45.9826 95.7957 44.5226L96.8385 39.0913C97.1188 37.6313 96.0584 36.2554 94.5752 36.1546L85.9644 35.5699C84.7168 35.4848 83.6016 36.3444 83.3657 37.5728L82.7186 40.9434C82.4827 42.1719 83.2001 43.3833 84.3907 43.7667Z" stroke="#83B645" stroke-width="4" stroke-miterlimit="10" stroke-linecap="round" stroke-linejoin="round"/>
<path d="M79.079 15.7213L85.4775 9.92982C86.5799 8.9321 86.5603 7.19498 85.436 6.22226L81.2541 2.60365C80.1295 1.63093 78.4076 1.86116 77.579 3.09529L72.7673 10.2598C72.0699 11.2983 72.2566 12.6938 73.2025 13.5121L75.7978 15.7579C76.7437 16.5764 78.1516 16.5607 79.079 15.7213Z" stroke="#83B645" stroke-width="4" stroke-miterlimit="10" stroke-linecap="round" stroke-linejoin="round"/>
<path d="M59.5908 20.2575L61.1039 22.4644L74.6157 26.4475C75.5466 26.7234 75.9102 27.8449 75.3198 28.6157L66.7293 39.7789L66.7579 40.7817" stroke="#83B645" stroke-width="4" stroke-miterlimit="10" stroke-linecap="round" stroke-linejoin="round"/>
<path d="M52.5415 50.6737L52.0001 50.4803L38.7281 55.1982C37.8129 55.5256 36.859 54.8296 36.885 53.8602L37.2717 39.7786L28.6813 28.6155C28.0909 27.8446 28.4544 26.7232 29.3853 26.4473L42.8971 22.4642L50.8606 10.8447C51.4098 10.0455 52.5905 10.0455 53.1397 10.8447L59.5229 20.0782" stroke="#83B645" stroke-width="4" stroke-miterlimit="10" stroke-linecap="round" stroke-linejoin="round"/>
<path d="M27.7939 124.848H48.8861L51.2198 126.948C53.4947 129.001 56.4407 130.131 59.505 130.131H90.1403C93.961 130.131 97.0586 127.034 97.0586 123.213C97.0586 119.392 93.961 116.295 90.1403 116.295H92.7202C96.5197 116.295 99.5998 113.215 99.5998 109.415C99.5998 105.615 96.5197 102.536 92.7202 102.536H94.5068C98.6449 102.536 102 99.1806 102 95.0422C102 90.9036 98.6449 87.5487 94.5068 87.5487H93.5289C98.2071 87.5487 102 83.7561 102 79.0776C102 74.3992 98.2071 70.6065 93.5289 70.6065H75.9585" stroke="#83B645" stroke-width="4" stroke-miterlimit="10" stroke-linecap="round" stroke-linejoin="round"/>
<path d="M76.1317 70.6058H66.9134L71.273 60.5007C71.4741 60.0356 71.6295 59.5522 71.7378 59.0572L72.6092 55.0784C74.311 47.3075 68.3933 39.9538 60.4385 39.9538C57.9945 39.9538 55.8513 41.5857 55.2009 43.9418L51.9551 55.7057L39.1871 78.5455H27.7939" stroke="#83B645" stroke-width="4" stroke-miterlimit="10" stroke-linecap="round" stroke-linejoin="round"/>
<path d="M66.1414 70.6061H58.2207" stroke="#83B645" stroke-width="4" stroke-miterlimit="10" stroke-linecap="round" stroke-linejoin="round"/>
<path d="M92.756 87.5483H85.3125" stroke="#83B645" stroke-width="4" stroke-miterlimit="10" stroke-linecap="round" stroke-linejoin="round"/>
<path d="M91.9478 102.535H83.7598" stroke="#83B645" stroke-width="4" stroke-miterlimit="10" stroke-linecap="round" stroke-linejoin="round"/>
<path d="M89.3683 116.294H80.6543" stroke="#83B645" stroke-width="4" stroke-miterlimit="10" stroke-linecap="round" stroke-linejoin="round"/>
<path d="M2 130.13H23.7509C25.2719 130.13 26.5048 128.897 26.5048 127.376V97.0993" stroke="#83B645" stroke-width="4" stroke-miterlimit="10" stroke-linecap="round" stroke-linejoin="round"/>
<path d="M26.5048 98.7743V76.2229C26.5048 74.7021 25.2719 73.469 23.7509 73.469H2" stroke="#83B645" stroke-width="4" stroke-miterlimit="10" stroke-linecap="round" stroke-linejoin="round"/>
<path d="M9.64648 122.565H12.5868" stroke="#83B645" stroke-width="4" stroke-miterlimit="10" stroke-linecap="round" stroke-linejoin="round"/>
</svg>
